<mxfile host="Electron" agent="Mozilla/5.0 (X11; Linux x86_64) AppleWebKit/537.36 (KHTML, like Gecko) draw.io/26.0.9 Chrome/128.0.6613.186 Electron/32.2.5 Safari/537.36" version="26.0.9">
  <diagram name="architecture overview" id="KCZARJwIiOzvQ8DVc0jA">
    <mxGraphModel dx="1388" dy="838" grid="1" gridSize="10" guides="1" tooltips="1" connect="1" arrows="1" fold="1" page="1" pageScale="1" pageWidth="1169" pageHeight="827" math="0" shadow="0">
      <root>
        <mxCell id="0" />
        <mxCell id="1" parent="0" />
        <mxCell id="0qkumul5ZrJoppvIKpxn-1" value="&lt;font face=&quot;Times New Roman&quot; style=&quot;font-size: 15px;&quot;&gt;«component»&lt;br&gt;&lt;b style=&quot;&quot;&gt;Activity Provider&lt;/b&gt;&lt;/font&gt;" style="html=1;dropTarget=0;whiteSpace=wrap;verticalAlign=top;" vertex="1" parent="1">
          <mxGeometry x="960" y="40" width="200" height="510" as="geometry" />
        </mxCell>
        <mxCell id="0qkumul5ZrJoppvIKpxn-2" value="" style="shape=module;jettyWidth=8;jettyHeight=4;" vertex="1" parent="0qkumul5ZrJoppvIKpxn-1">
          <mxGeometry x="1" width="20" height="20" relative="1" as="geometry">
            <mxPoint x="-27" y="7" as="offset" />
          </mxGeometry>
        </mxCell>
        <mxCell id="0qkumul5ZrJoppvIKpxn-3" value="&lt;font face=&quot;Times New Roman&quot; style=&quot;font-size: 15px;&quot;&gt;«component»&lt;br&gt;&lt;b style=&quot;&quot;&gt;Inven!RA&lt;/b&gt;&lt;/font&gt;" style="html=1;dropTarget=0;whiteSpace=wrap;verticalAlign=top;" vertex="1" parent="1">
          <mxGeometry x="600" y="40" width="200" height="560" as="geometry" />
        </mxCell>
        <mxCell id="0qkumul5ZrJoppvIKpxn-4" value="" style="shape=module;jettyWidth=8;jettyHeight=4;" vertex="1" parent="0qkumul5ZrJoppvIKpxn-3">
          <mxGeometry x="1" width="20" height="20" relative="1" as="geometry">
            <mxPoint x="-27" y="8" as="offset" />
          </mxGeometry>
        </mxCell>
        <mxCell id="0qkumul5ZrJoppvIKpxn-5" value="&lt;font face=&quot;Times New Roman&quot; style=&quot;font-size: 15px;&quot;&gt;«component»&lt;br&gt;&lt;b style=&quot;&quot;&gt;LMS&lt;/b&gt;&lt;/font&gt;" style="html=1;dropTarget=0;whiteSpace=wrap;verticalAlign=top;" vertex="1" parent="1">
          <mxGeometry x="320" y="240" width="200" height="360" as="geometry" />
        </mxCell>
        <mxCell id="0qkumul5ZrJoppvIKpxn-6" value="" style="shape=module;jettyWidth=8;jettyHeight=4;" vertex="1" parent="0qkumul5ZrJoppvIKpxn-5">
          <mxGeometry x="1" width="20" height="20" relative="1" as="geometry">
            <mxPoint x="-27" y="7" as="offset" />
          </mxGeometry>
        </mxCell>
        <mxCell id="0qkumul5ZrJoppvIKpxn-7" value="&lt;font face=&quot;Times New Roman&quot; style=&quot;font-size: 15px;&quot;&gt;Creator&lt;br&gt;(learning designer)&lt;/font&gt;" style="shape=umlActor;verticalLabelPosition=bottom;verticalAlign=top;html=1;" vertex="1" parent="1">
          <mxGeometry x="66" y="40" width="30" height="60" as="geometry" />
        </mxCell>
        <mxCell id="0qkumul5ZrJoppvIKpxn-9" value="&lt;span style=&quot;font-size: 15px;&quot;&gt;&lt;font face=&quot;Times New Roman&quot;&gt;Deployer&lt;br&gt;(instructor, etc)&lt;/font&gt;&lt;/span&gt;" style="shape=umlActor;verticalLabelPosition=bottom;verticalAlign=top;html=1;" vertex="1" parent="1">
          <mxGeometry x="66" y="200" width="30" height="60" as="geometry" />
        </mxCell>
        <mxCell id="0qkumul5ZrJoppvIKpxn-12" value="&lt;span style=&quot;font-size: 15px;&quot;&gt;&lt;font face=&quot;Times New Roman&quot;&gt;Active Agent&lt;br&gt;(student, trainee, etc.)&lt;/font&gt;&lt;/span&gt;" style="shape=umlActor;verticalLabelPosition=bottom;verticalAlign=top;html=1;" vertex="1" parent="1">
          <mxGeometry x="66" y="354" width="30" height="60" as="geometry" />
        </mxCell>
        <mxCell id="0qkumul5ZrJoppvIKpxn-14" value="&lt;span style=&quot;font-size: 15px;&quot;&gt;&lt;font face=&quot;Times New Roman&quot;&gt;Awaress Agent&lt;br&gt;(instructor, student,&lt;br&gt;trainee, manager, etc.)&lt;/font&gt;&lt;/span&gt;" style="shape=umlActor;verticalLabelPosition=bottom;verticalAlign=top;html=1;" vertex="1" parent="1">
          <mxGeometry x="66" y="510" width="30" height="60" as="geometry" />
        </mxCell>
        <mxCell id="0qkumul5ZrJoppvIKpxn-21" value="" style="shape=providedRequiredInterface;html=1;verticalLabelPosition=bottom;sketch=0;rotation=-180;" vertex="1" parent="1">
          <mxGeometry x="320" y="55" width="30" height="30" as="geometry" />
        </mxCell>
        <mxCell id="0qkumul5ZrJoppvIKpxn-25" value="" style="endArrow=none;endFill=1;endSize=12;html=1;rounded=0;startFill=0;entryX=1;entryY=0.5;entryDx=0;entryDy=0;entryPerimeter=0;exitX=1;exitY=0.5;exitDx=0;exitDy=0;" edge="1" parent="1" source="0qkumul5ZrJoppvIKpxn-26" target="0qkumul5ZrJoppvIKpxn-21">
          <mxGeometry width="160" relative="1" as="geometry">
            <mxPoint x="140" y="69.6" as="sourcePoint" />
            <mxPoint x="300" y="69.6" as="targetPoint" />
          </mxGeometry>
        </mxCell>
        <mxCell id="0qkumul5ZrJoppvIKpxn-26" value="" style="html=1;rounded=0;" vertex="1" parent="1">
          <mxGeometry x="120" y="60" width="20" height="20" as="geometry" />
        </mxCell>
        <mxCell id="0qkumul5ZrJoppvIKpxn-29" value="" style="html=1;rounded=0;" vertex="1" parent="1">
          <mxGeometry x="590" y="60" width="20" height="20" as="geometry" />
        </mxCell>
        <mxCell id="0qkumul5ZrJoppvIKpxn-30" value="" style="endArrow=none;endFill=1;endSize=12;html=1;rounded=0;startFill=0;entryX=0;entryY=0.5;entryDx=0;entryDy=0;exitX=0;exitY=0.5;exitDx=0;exitDy=0;exitPerimeter=0;" edge="1" parent="1" source="0qkumul5ZrJoppvIKpxn-21" target="0qkumul5ZrJoppvIKpxn-29">
          <mxGeometry width="160" relative="1" as="geometry">
            <mxPoint x="150" y="80" as="sourcePoint" />
            <mxPoint x="330" y="80" as="targetPoint" />
          </mxGeometry>
        </mxCell>
        <mxCell id="0qkumul5ZrJoppvIKpxn-31" value="" style="shape=providedRequiredInterface;html=1;verticalLabelPosition=bottom;sketch=0;rotation=-180;" vertex="1" parent="1">
          <mxGeometry x="320" y="160" width="30" height="30" as="geometry" />
        </mxCell>
        <mxCell id="0qkumul5ZrJoppvIKpxn-32" value="" style="endArrow=none;endFill=1;endSize=12;html=1;rounded=1;startFill=0;entryX=1;entryY=0.5;entryDx=0;entryDy=0;entryPerimeter=0;exitX=1;exitY=0.5;exitDx=0;exitDy=0;curved=0;" edge="1" parent="1" source="0qkumul5ZrJoppvIKpxn-33" target="0qkumul5ZrJoppvIKpxn-31">
          <mxGeometry width="160" relative="1" as="geometry">
            <mxPoint x="140" y="174.6" as="sourcePoint" />
            <mxPoint x="300" y="174.6" as="targetPoint" />
            <Array as="points">
              <mxPoint x="230" y="230" />
              <mxPoint x="230" y="175" />
            </Array>
          </mxGeometry>
        </mxCell>
        <mxCell id="0qkumul5ZrJoppvIKpxn-33" value="" style="html=1;rounded=0;" vertex="1" parent="1">
          <mxGeometry x="120" y="220" width="20" height="20" as="geometry" />
        </mxCell>
        <mxCell id="0qkumul5ZrJoppvIKpxn-34" value="" style="html=1;rounded=0;" vertex="1" parent="1">
          <mxGeometry x="590" y="165" width="20" height="20" as="geometry" />
        </mxCell>
        <mxCell id="0qkumul5ZrJoppvIKpxn-35" value="" style="endArrow=none;endFill=1;endSize=12;html=1;rounded=0;startFill=0;entryX=0;entryY=0.5;entryDx=0;entryDy=0;exitX=0;exitY=0.5;exitDx=0;exitDy=0;exitPerimeter=0;" edge="1" parent="1" source="0qkumul5ZrJoppvIKpxn-31" target="0qkumul5ZrJoppvIKpxn-34">
          <mxGeometry width="160" relative="1" as="geometry">
            <mxPoint x="150" y="185" as="sourcePoint" />
            <mxPoint x="330" y="185" as="targetPoint" />
          </mxGeometry>
        </mxCell>
        <mxCell id="0qkumul5ZrJoppvIKpxn-36" value="Plan design" style="text;html=1;align=center;verticalAlign=middle;whiteSpace=wrap;rounded=0;fontFamily=Times New Roman;fontStyle=1;fontSize=14;" vertex="1" parent="1">
          <mxGeometry x="277.5" y="90" width="115" height="30" as="geometry" />
        </mxCell>
        <mxCell id="0qkumul5ZrJoppvIKpxn-39" value="Deploy plan" style="text;html=1;align=center;verticalAlign=middle;whiteSpace=wrap;rounded=0;fontFamily=Times New Roman;fontStyle=1;fontSize=14;" vertex="1" parent="1">
          <mxGeometry x="277.5" y="190" width="115" height="30" as="geometry" />
        </mxCell>
        <mxCell id="0qkumul5ZrJoppvIKpxn-40" value="" style="shape=providedRequiredInterface;html=1;verticalLabelPosition=bottom;sketch=0;rotation=-180;" vertex="1" parent="1">
          <mxGeometry x="542" y="306" width="30" height="30" as="geometry" />
        </mxCell>
        <mxCell id="0qkumul5ZrJoppvIKpxn-41" value="" style="endArrow=none;endFill=1;endSize=12;html=1;rounded=0;startFill=0;entryX=1;entryY=0.5;entryDx=0;entryDy=0;entryPerimeter=0;exitX=1;exitY=0.5;exitDx=0;exitDy=0;" edge="1" parent="1" source="0qkumul5ZrJoppvIKpxn-42" target="0qkumul5ZrJoppvIKpxn-40">
          <mxGeometry width="160" relative="1" as="geometry">
            <mxPoint x="362" y="320.6" as="sourcePoint" />
            <mxPoint x="522" y="320.6" as="targetPoint" />
          </mxGeometry>
        </mxCell>
        <mxCell id="0qkumul5ZrJoppvIKpxn-42" value="" style="html=1;rounded=0;" vertex="1" parent="1">
          <mxGeometry x="510" y="311" width="20" height="20" as="geometry" />
        </mxCell>
        <mxCell id="0qkumul5ZrJoppvIKpxn-43" value="" style="html=1;rounded=0;" vertex="1" parent="1">
          <mxGeometry x="590" y="311" width="20" height="20" as="geometry" />
        </mxCell>
        <mxCell id="0qkumul5ZrJoppvIKpxn-44" value="" style="endArrow=none;endFill=1;endSize=12;html=1;rounded=0;startFill=0;entryX=0;entryY=0.5;entryDx=0;entryDy=0;exitX=0;exitY=0.5;exitDx=0;exitDy=0;exitPerimeter=0;" edge="1" parent="1" source="0qkumul5ZrJoppvIKpxn-40" target="0qkumul5ZrJoppvIKpxn-43">
          <mxGeometry width="160" relative="1" as="geometry">
            <mxPoint x="372" y="331" as="sourcePoint" />
            <mxPoint x="552" y="331" as="targetPoint" />
          </mxGeometry>
        </mxCell>
        <mxCell id="0qkumul5ZrJoppvIKpxn-45" value="Access activity" style="text;html=1;align=center;verticalAlign=middle;whiteSpace=wrap;rounded=0;fontFamily=Times New Roman;fontStyle=1;fontSize=14;" vertex="1" parent="1">
          <mxGeometry x="521.75" y="341" width="70.5" height="30" as="geometry" />
        </mxCell>
        <mxCell id="0qkumul5ZrJoppvIKpxn-46" value="" style="shape=providedRequiredInterface;html=1;verticalLabelPosition=bottom;sketch=0;rotation=-180;" vertex="1" parent="1">
          <mxGeometry x="220" y="271" width="30" height="30" as="geometry" />
        </mxCell>
        <mxCell id="0qkumul5ZrJoppvIKpxn-47" value="" style="html=1;rounded=0;" vertex="1" parent="1">
          <mxGeometry x="310" y="276" width="20" height="20" as="geometry" />
        </mxCell>
        <mxCell id="0qkumul5ZrJoppvIKpxn-48" value="" style="endArrow=none;endFill=1;endSize=12;html=1;rounded=0;startFill=0;entryX=0;entryY=0.5;entryDx=0;entryDy=0;exitX=0;exitY=0.5;exitDx=0;exitDy=0;exitPerimeter=0;" edge="1" parent="1" source="0qkumul5ZrJoppvIKpxn-46" target="0qkumul5ZrJoppvIKpxn-47">
          <mxGeometry width="160" relative="1" as="geometry">
            <mxPoint x="50" y="296" as="sourcePoint" />
            <mxPoint x="230" y="296" as="targetPoint" />
          </mxGeometry>
        </mxCell>
        <mxCell id="0qkumul5ZrJoppvIKpxn-49" value="Design course" style="text;html=1;align=center;verticalAlign=middle;whiteSpace=wrap;rounded=0;fontFamily=Times New Roman;fontStyle=1;fontSize=14;" vertex="1" parent="1">
          <mxGeometry x="177.5" y="306" width="115" height="30" as="geometry" />
        </mxCell>
        <mxCell id="0qkumul5ZrJoppvIKpxn-51" value="" style="endArrow=none;endFill=1;endSize=12;html=1;rounded=1;startFill=0;entryX=1;entryY=0.5;entryDx=0;entryDy=0;entryPerimeter=0;exitX=1;exitY=0.5;exitDx=0;exitDy=0;curved=0;" edge="1" parent="1" source="0qkumul5ZrJoppvIKpxn-33" target="0qkumul5ZrJoppvIKpxn-46">
          <mxGeometry width="160" relative="1" as="geometry">
            <mxPoint x="150" y="240" as="sourcePoint" />
            <mxPoint x="330" y="185" as="targetPoint" />
            <Array as="points">
              <mxPoint x="180" y="230" />
              <mxPoint x="180" y="286" />
            </Array>
          </mxGeometry>
        </mxCell>
        <mxCell id="0qkumul5ZrJoppvIKpxn-52" value="" style="shape=providedRequiredInterface;html=1;verticalLabelPosition=bottom;sketch=0;rotation=-180;" vertex="1" parent="1">
          <mxGeometry x="220" y="370" width="30" height="30" as="geometry" />
        </mxCell>
        <mxCell id="0qkumul5ZrJoppvIKpxn-53" value="" style="endArrow=none;endFill=1;endSize=12;html=1;rounded=0;startFill=0;entryX=1;entryY=0.5;entryDx=0;entryDy=0;entryPerimeter=0;exitX=1;exitY=0.5;exitDx=0;exitDy=0;" edge="1" parent="1" source="0qkumul5ZrJoppvIKpxn-54" target="0qkumul5ZrJoppvIKpxn-52">
          <mxGeometry width="160" relative="1" as="geometry">
            <mxPoint x="40" y="384.6" as="sourcePoint" />
            <mxPoint x="200" y="384.6" as="targetPoint" />
          </mxGeometry>
        </mxCell>
        <mxCell id="0qkumul5ZrJoppvIKpxn-54" value="" style="html=1;rounded=0;" vertex="1" parent="1">
          <mxGeometry x="120" y="375" width="20" height="20" as="geometry" />
        </mxCell>
        <mxCell id="0qkumul5ZrJoppvIKpxn-55" value="" style="html=1;rounded=0;" vertex="1" parent="1">
          <mxGeometry x="310" y="375" width="20" height="20" as="geometry" />
        </mxCell>
        <mxCell id="0qkumul5ZrJoppvIKpxn-56" value="" style="endArrow=none;endFill=1;endSize=12;html=1;rounded=0;startFill=0;entryX=0;entryY=0.5;entryDx=0;entryDy=0;exitX=0;exitY=0.5;exitDx=0;exitDy=0;exitPerimeter=0;" edge="1" parent="1" source="0qkumul5ZrJoppvIKpxn-52" target="0qkumul5ZrJoppvIKpxn-55">
          <mxGeometry width="160" relative="1" as="geometry">
            <mxPoint x="50" y="395" as="sourcePoint" />
            <mxPoint x="230" y="395" as="targetPoint" />
          </mxGeometry>
        </mxCell>
        <mxCell id="0qkumul5ZrJoppvIKpxn-57" value="Access course" style="text;html=1;align=center;verticalAlign=middle;whiteSpace=wrap;rounded=0;fontFamily=Times New Roman;fontStyle=1;fontSize=14;" vertex="1" parent="1">
          <mxGeometry x="177.5" y="405" width="115" height="30" as="geometry" />
        </mxCell>
        <mxCell id="0qkumul5ZrJoppvIKpxn-59" value="" style="shape=providedRequiredInterface;html=1;verticalLabelPosition=bottom;sketch=0;rotation=0;" vertex="1" parent="1">
          <mxGeometry x="360" y="620" width="30" height="30" as="geometry" />
        </mxCell>
        <mxCell id="0qkumul5ZrJoppvIKpxn-60" value="" style="endArrow=none;endFill=1;endSize=12;html=1;rounded=1;startFill=0;entryX=1;entryY=0.5;entryDx=0;entryDy=0;entryPerimeter=0;exitX=1;exitY=0.5;exitDx=0;exitDy=0;curved=0;" edge="1" parent="1" source="0qkumul5ZrJoppvIKpxn-61" target="0qkumul5ZrJoppvIKpxn-59">
          <mxGeometry width="160" relative="1" as="geometry">
            <mxPoint x="180" y="684.6" as="sourcePoint" />
            <mxPoint x="340" y="684.6" as="targetPoint" />
            <Array as="points">
              <mxPoint x="560" y="560" />
              <mxPoint x="560" y="635" />
            </Array>
          </mxGeometry>
        </mxCell>
        <mxCell id="0qkumul5ZrJoppvIKpxn-61" value="" style="html=1;rounded=0;" vertex="1" parent="1">
          <mxGeometry x="590" y="550" width="20" height="20" as="geometry" />
        </mxCell>
        <mxCell id="0qkumul5ZrJoppvIKpxn-63" value="" style="endArrow=none;endFill=1;endSize=12;html=1;rounded=1;startFill=0;exitX=0;exitY=0.5;exitDx=0;exitDy=0;exitPerimeter=0;entryX=1;entryY=0.5;entryDx=0;entryDy=0;curved=0;" edge="1" parent="1" source="0qkumul5ZrJoppvIKpxn-59" target="0qkumul5ZrJoppvIKpxn-54">
          <mxGeometry width="160" relative="1" as="geometry">
            <mxPoint x="190" y="695" as="sourcePoint" />
            <mxPoint x="200" y="560" as="targetPoint" />
            <Array as="points">
              <mxPoint x="250" y="635" />
              <mxPoint x="250" y="460" />
              <mxPoint x="180" y="460" />
              <mxPoint x="180" y="385" />
            </Array>
          </mxGeometry>
        </mxCell>
        <mxCell id="0qkumul5ZrJoppvIKpxn-64" value="Redirect activity" style="text;html=1;align=center;verticalAlign=middle;whiteSpace=wrap;rounded=0;fontFamily=Times New Roman;fontStyle=1;fontSize=14;" vertex="1" parent="1">
          <mxGeometry x="320" y="650" width="115" height="30" as="geometry" />
        </mxCell>
        <mxCell id="0qkumul5ZrJoppvIKpxn-73" value="" style="shape=providedRequiredInterface;html=1;verticalLabelPosition=bottom;sketch=0;rotation=-180;" vertex="1" parent="1">
          <mxGeometry x="360" y="705" width="30" height="30" as="geometry" />
        </mxCell>
        <mxCell id="0qkumul5ZrJoppvIKpxn-74" value="" style="endArrow=none;endFill=1;endSize=12;html=1;rounded=1;startFill=0;entryX=1;entryY=0.5;entryDx=0;entryDy=0;entryPerimeter=0;exitX=1;exitY=0.5;exitDx=0;exitDy=0;curved=0;" edge="1" parent="1" source="0qkumul5ZrJoppvIKpxn-75" target="0qkumul5ZrJoppvIKpxn-73">
          <mxGeometry width="160" relative="1" as="geometry">
            <mxPoint x="180" y="704.6" as="sourcePoint" />
            <mxPoint x="340" y="704.6" as="targetPoint" />
            <Array as="points">
              <mxPoint x="190" y="540" />
              <mxPoint x="190" y="720" />
            </Array>
          </mxGeometry>
        </mxCell>
        <mxCell id="0qkumul5ZrJoppvIKpxn-75" value="" style="html=1;rounded=0;" vertex="1" parent="1">
          <mxGeometry x="120" y="530" width="20" height="20" as="geometry" />
        </mxCell>
        <mxCell id="0qkumul5ZrJoppvIKpxn-76" value="" style="html=1;rounded=0;" vertex="1" parent="1">
          <mxGeometry x="690" y="590" width="20" height="20" as="geometry" />
        </mxCell>
        <mxCell id="0qkumul5ZrJoppvIKpxn-77" value="" style="endArrow=none;endFill=1;endSize=12;html=1;rounded=1;startFill=0;entryX=0.5;entryY=1;entryDx=0;entryDy=0;exitX=0;exitY=0.5;exitDx=0;exitDy=0;exitPerimeter=0;curved=0;" edge="1" parent="1" source="0qkumul5ZrJoppvIKpxn-73" target="0qkumul5ZrJoppvIKpxn-76">
          <mxGeometry width="160" relative="1" as="geometry">
            <mxPoint x="190" y="715" as="sourcePoint" />
            <mxPoint x="370" y="715" as="targetPoint" />
            <Array as="points">
              <mxPoint x="700" y="720" />
            </Array>
          </mxGeometry>
        </mxCell>
        <mxCell id="0qkumul5ZrJoppvIKpxn-78" value="Goal/indicators status" style="text;html=1;align=center;verticalAlign=middle;whiteSpace=wrap;rounded=0;fontFamily=Times New Roman;fontStyle=1;fontSize=14;" vertex="1" parent="1">
          <mxGeometry x="320" y="746" width="115" height="30" as="geometry" />
        </mxCell>
        <mxCell id="0qkumul5ZrJoppvIKpxn-80" value="" style="shape=providedRequiredInterface;html=1;verticalLabelPosition=bottom;sketch=0;rotation=-180;" vertex="1" parent="1">
          <mxGeometry x="865" y="95" width="30" height="30" as="geometry" />
        </mxCell>
        <mxCell id="0qkumul5ZrJoppvIKpxn-81" value="" style="endArrow=none;endFill=1;endSize=12;html=1;rounded=0;startFill=0;entryX=1;entryY=0.5;entryDx=0;entryDy=0;entryPerimeter=0;exitX=1;exitY=0.5;exitDx=0;exitDy=0;" edge="1" parent="1" source="0qkumul5ZrJoppvIKpxn-82" target="0qkumul5ZrJoppvIKpxn-80">
          <mxGeometry width="160" relative="1" as="geometry">
            <mxPoint x="685" y="109.6" as="sourcePoint" />
            <mxPoint x="845" y="109.6" as="targetPoint" />
          </mxGeometry>
        </mxCell>
        <mxCell id="0qkumul5ZrJoppvIKpxn-82" value="" style="html=1;rounded=0;" vertex="1" parent="1">
          <mxGeometry x="790" y="100" width="20" height="20" as="geometry" />
        </mxCell>
        <mxCell id="0qkumul5ZrJoppvIKpxn-83" value="" style="html=1;rounded=0;" vertex="1" parent="1">
          <mxGeometry x="950" y="100" width="20" height="20" as="geometry" />
        </mxCell>
        <mxCell id="0qkumul5ZrJoppvIKpxn-84" value="" style="endArrow=none;endFill=1;endSize=12;html=1;rounded=0;startFill=0;entryX=0;entryY=0.5;entryDx=0;entryDy=0;exitX=0;exitY=0.5;exitDx=0;exitDy=0;exitPerimeter=0;" edge="1" parent="1" source="0qkumul5ZrJoppvIKpxn-80" target="0qkumul5ZrJoppvIKpxn-83">
          <mxGeometry width="160" relative="1" as="geometry">
            <mxPoint x="695" y="120" as="sourcePoint" />
            <mxPoint x="875" y="120" as="targetPoint" />
          </mxGeometry>
        </mxCell>
        <mxCell id="0qkumul5ZrJoppvIKpxn-85" value="Configuration parameters" style="text;html=1;align=center;verticalAlign=middle;whiteSpace=wrap;rounded=0;fontFamily=Times New Roman;fontStyle=1;fontSize=14;" vertex="1" parent="1">
          <mxGeometry x="822.5" y="130" width="115" height="30" as="geometry" />
        </mxCell>
        <mxCell id="0qkumul5ZrJoppvIKpxn-86" value="" style="shape=providedRequiredInterface;html=1;verticalLabelPosition=bottom;sketch=0;rotation=-180;" vertex="1" parent="1">
          <mxGeometry x="865" y="172.5" width="30" height="30" as="geometry" />
        </mxCell>
        <mxCell id="0qkumul5ZrJoppvIKpxn-87" value="" style="endArrow=none;endFill=1;endSize=12;html=1;rounded=0;startFill=0;entryX=1;entryY=0.5;entryDx=0;entryDy=0;entryPerimeter=0;exitX=1;exitY=0.5;exitDx=0;exitDy=0;" edge="1" parent="1" source="0qkumul5ZrJoppvIKpxn-88" target="0qkumul5ZrJoppvIKpxn-86">
          <mxGeometry width="160" relative="1" as="geometry">
            <mxPoint x="685" y="187.1" as="sourcePoint" />
            <mxPoint x="845" y="187.1" as="targetPoint" />
          </mxGeometry>
        </mxCell>
        <mxCell id="0qkumul5ZrJoppvIKpxn-88" value="" style="html=1;rounded=0;" vertex="1" parent="1">
          <mxGeometry x="790" y="177.5" width="20" height="20" as="geometry" />
        </mxCell>
        <mxCell id="0qkumul5ZrJoppvIKpxn-89" value="" style="html=1;rounded=0;" vertex="1" parent="1">
          <mxGeometry x="950" y="177.5" width="20" height="20" as="geometry" />
        </mxCell>
        <mxCell id="0qkumul5ZrJoppvIKpxn-90" value="" style="endArrow=none;endFill=1;endSize=12;html=1;rounded=0;startFill=0;entryX=0;entryY=0.5;entryDx=0;entryDy=0;exitX=0;exitY=0.5;exitDx=0;exitDy=0;exitPerimeter=0;" edge="1" parent="1" source="0qkumul5ZrJoppvIKpxn-86" target="0qkumul5ZrJoppvIKpxn-89">
          <mxGeometry width="160" relative="1" as="geometry">
            <mxPoint x="695" y="197.5" as="sourcePoint" />
            <mxPoint x="875" y="197.5" as="targetPoint" />
          </mxGeometry>
        </mxCell>
        <mxCell id="0qkumul5ZrJoppvIKpxn-91" value="Configuration interface" style="text;html=1;align=center;verticalAlign=middle;whiteSpace=wrap;rounded=0;fontFamily=Times New Roman;fontStyle=1;fontSize=14;" vertex="1" parent="1">
          <mxGeometry x="822.5" y="207.5" width="115" height="30" as="geometry" />
        </mxCell>
        <mxCell id="0qkumul5ZrJoppvIKpxn-92" value="" style="shape=providedRequiredInterface;html=1;verticalLabelPosition=bottom;sketch=0;rotation=-180;" vertex="1" parent="1">
          <mxGeometry x="865" y="253.5" width="30" height="30" as="geometry" />
        </mxCell>
        <mxCell id="0qkumul5ZrJoppvIKpxn-93" value="" style="endArrow=none;endFill=1;endSize=12;html=1;rounded=0;startFill=0;entryX=1;entryY=0.5;entryDx=0;entryDy=0;entryPerimeter=0;exitX=1;exitY=0.5;exitDx=0;exitDy=0;" edge="1" parent="1" source="0qkumul5ZrJoppvIKpxn-94" target="0qkumul5ZrJoppvIKpxn-92">
          <mxGeometry width="160" relative="1" as="geometry">
            <mxPoint x="685" y="268.1" as="sourcePoint" />
            <mxPoint x="845" y="268.1" as="targetPoint" />
          </mxGeometry>
        </mxCell>
        <mxCell id="0qkumul5ZrJoppvIKpxn-94" value="" style="html=1;rounded=0;" vertex="1" parent="1">
          <mxGeometry x="790" y="258.5" width="20" height="20" as="geometry" />
        </mxCell>
        <mxCell id="0qkumul5ZrJoppvIKpxn-95" value="" style="html=1;rounded=0;" vertex="1" parent="1">
          <mxGeometry x="950" y="258.5" width="20" height="20" as="geometry" />
        </mxCell>
        <mxCell id="0qkumul5ZrJoppvIKpxn-96" value="" style="endArrow=none;endFill=1;endSize=12;html=1;rounded=0;startFill=0;entryX=0;entryY=0.5;entryDx=0;entryDy=0;exitX=0;exitY=0.5;exitDx=0;exitDy=0;exitPerimeter=0;" edge="1" parent="1" source="0qkumul5ZrJoppvIKpxn-92" target="0qkumul5ZrJoppvIKpxn-95">
          <mxGeometry width="160" relative="1" as="geometry">
            <mxPoint x="695" y="278.5" as="sourcePoint" />
            <mxPoint x="875" y="278.5" as="targetPoint" />
          </mxGeometry>
        </mxCell>
        <mxCell id="0qkumul5ZrJoppvIKpxn-97" value="Analytics contract" style="text;html=1;align=center;verticalAlign=middle;whiteSpace=wrap;rounded=0;fontFamily=Times New Roman;fontStyle=1;fontSize=14;" vertex="1" parent="1">
          <mxGeometry x="822.5" y="288.5" width="115" height="30" as="geometry" />
        </mxCell>
        <mxCell id="0qkumul5ZrJoppvIKpxn-98" value="" style="shape=providedRequiredInterface;html=1;verticalLabelPosition=bottom;sketch=0;rotation=-180;" vertex="1" parent="1">
          <mxGeometry x="865" y="323.5" width="30" height="30" as="geometry" />
        </mxCell>
        <mxCell id="0qkumul5ZrJoppvIKpxn-99" value="" style="endArrow=none;endFill=1;endSize=12;html=1;rounded=0;startFill=0;entryX=1;entryY=0.5;entryDx=0;entryDy=0;entryPerimeter=0;exitX=1;exitY=0.5;exitDx=0;exitDy=0;" edge="1" parent="1" source="0qkumul5ZrJoppvIKpxn-100" target="0qkumul5ZrJoppvIKpxn-98">
          <mxGeometry width="160" relative="1" as="geometry">
            <mxPoint x="685" y="338.1" as="sourcePoint" />
            <mxPoint x="845" y="338.1" as="targetPoint" />
          </mxGeometry>
        </mxCell>
        <mxCell id="0qkumul5ZrJoppvIKpxn-100" value="" style="html=1;rounded=0;" vertex="1" parent="1">
          <mxGeometry x="790" y="328.5" width="20" height="20" as="geometry" />
        </mxCell>
        <mxCell id="0qkumul5ZrJoppvIKpxn-101" value="" style="html=1;rounded=0;" vertex="1" parent="1">
          <mxGeometry x="950" y="328.5" width="20" height="20" as="geometry" />
        </mxCell>
        <mxCell id="0qkumul5ZrJoppvIKpxn-102" value="" style="endArrow=none;endFill=1;endSize=12;html=1;rounded=0;startFill=0;entryX=0;entryY=0.5;entryDx=0;entryDy=0;exitX=0;exitY=0.5;exitDx=0;exitDy=0;exitPerimeter=0;" edge="1" parent="1" source="0qkumul5ZrJoppvIKpxn-98" target="0qkumul5ZrJoppvIKpxn-101">
          <mxGeometry width="160" relative="1" as="geometry">
            <mxPoint x="695" y="348.5" as="sourcePoint" />
            <mxPoint x="875" y="348.5" as="targetPoint" />
          </mxGeometry>
        </mxCell>
        <mxCell id="0qkumul5ZrJoppvIKpxn-103" value="Provide analytics" style="text;html=1;align=center;verticalAlign=middle;whiteSpace=wrap;rounded=0;fontFamily=Times New Roman;fontStyle=1;fontSize=14;" vertex="1" parent="1">
          <mxGeometry x="822.5" y="358.5" width="115" height="30" as="geometry" />
        </mxCell>
        <mxCell id="0qkumul5ZrJoppvIKpxn-104" value="" style="shape=providedRequiredInterface;html=1;verticalLabelPosition=bottom;sketch=0;rotation=-180;" vertex="1" parent="1">
          <mxGeometry x="865" y="395" width="30" height="30" as="geometry" />
        </mxCell>
        <mxCell id="0qkumul5ZrJoppvIKpxn-105" value="" style="endArrow=none;endFill=1;endSize=12;html=1;rounded=0;startFill=0;entryX=1;entryY=0.5;entryDx=0;entryDy=0;entryPerimeter=0;exitX=1;exitY=0.5;exitDx=0;exitDy=0;" edge="1" parent="1" source="0qkumul5ZrJoppvIKpxn-106" target="0qkumul5ZrJoppvIKpxn-104">
          <mxGeometry width="160" relative="1" as="geometry">
            <mxPoint x="685" y="409.6" as="sourcePoint" />
            <mxPoint x="845" y="409.6" as="targetPoint" />
          </mxGeometry>
        </mxCell>
        <mxCell id="0qkumul5ZrJoppvIKpxn-106" value="" style="html=1;rounded=0;" vertex="1" parent="1">
          <mxGeometry x="790" y="400" width="20" height="20" as="geometry" />
        </mxCell>
        <mxCell id="0qkumul5ZrJoppvIKpxn-107" value="" style="html=1;rounded=0;" vertex="1" parent="1">
          <mxGeometry x="950" y="400" width="20" height="20" as="geometry" />
        </mxCell>
        <mxCell id="0qkumul5ZrJoppvIKpxn-108" value="" style="endArrow=none;endFill=1;endSize=12;html=1;rounded=0;startFill=0;entryX=0;entryY=0.5;entryDx=0;entryDy=0;exitX=0;exitY=0.5;exitDx=0;exitDy=0;exitPerimeter=0;" edge="1" parent="1" source="0qkumul5ZrJoppvIKpxn-104" target="0qkumul5ZrJoppvIKpxn-107">
          <mxGeometry width="160" relative="1" as="geometry">
            <mxPoint x="695" y="420" as="sourcePoint" />
            <mxPoint x="875" y="420" as="targetPoint" />
          </mxGeometry>
        </mxCell>
        <mxCell id="0qkumul5ZrJoppvIKpxn-109" value="Deploy activity" style="text;html=1;align=center;verticalAlign=middle;whiteSpace=wrap;rounded=0;fontFamily=Times New Roman;fontStyle=1;fontSize=14;" vertex="1" parent="1">
          <mxGeometry x="822.5" y="430" width="115" height="30" as="geometry" />
        </mxCell>
        <mxCell id="0qkumul5ZrJoppvIKpxn-110" value="" style="shape=providedRequiredInterface;html=1;verticalLabelPosition=bottom;sketch=0;rotation=-180;" vertex="1" parent="1">
          <mxGeometry x="865" y="465" width="30" height="30" as="geometry" />
        </mxCell>
        <mxCell id="0qkumul5ZrJoppvIKpxn-113" value="" style="html=1;rounded=0;" vertex="1" parent="1">
          <mxGeometry x="950" y="470" width="20" height="20" as="geometry" />
        </mxCell>
        <mxCell id="0qkumul5ZrJoppvIKpxn-114" value="" style="endArrow=none;endFill=1;endSize=12;html=1;rounded=0;startFill=0;entryX=0;entryY=0.5;entryDx=0;entryDy=0;exitX=0;exitY=0.5;exitDx=0;exitDy=0;exitPerimeter=0;" edge="1" parent="1" source="0qkumul5ZrJoppvIKpxn-110" target="0qkumul5ZrJoppvIKpxn-113">
          <mxGeometry width="160" relative="1" as="geometry">
            <mxPoint x="695" y="490" as="sourcePoint" />
            <mxPoint x="875" y="490" as="targetPoint" />
          </mxGeometry>
        </mxCell>
        <mxCell id="0qkumul5ZrJoppvIKpxn-115" value="Provide activity" style="text;html=1;align=center;verticalAlign=middle;whiteSpace=wrap;rounded=0;fontFamily=Times New Roman;fontStyle=1;fontSize=14;" vertex="1" parent="1">
          <mxGeometry x="822.5" y="500" width="115" height="30" as="geometry" />
        </mxCell>
        <mxCell id="0qkumul5ZrJoppvIKpxn-116" value="" style="endArrow=none;endFill=1;endSize=12;html=1;rounded=1;startFill=0;entryX=1;entryY=0.5;entryDx=0;entryDy=0;exitX=1;exitY=0.5;exitDx=0;exitDy=0;curved=0;exitPerimeter=0;" edge="1" parent="1" source="0qkumul5ZrJoppvIKpxn-110" target="0qkumul5ZrJoppvIKpxn-54">
          <mxGeometry width="160" relative="1" as="geometry">
            <mxPoint x="620" y="570" as="sourcePoint" />
            <mxPoint x="400" y="645" as="targetPoint" />
            <Array as="points">
              <mxPoint x="820" y="480" />
              <mxPoint x="820" y="700" />
              <mxPoint x="250" y="700" />
              <mxPoint x="250" y="630" />
              <mxPoint x="250" y="460" />
              <mxPoint x="180" y="460" />
              <mxPoint x="180" y="385" />
            </Array>
          </mxGeometry>
        </mxCell>
      </root>
    </mxGraphModel>
  </diagram>
</mxfile>
